<svg xmlns="http://www.w3.org/2000/svg" version="1.1" xmlns:xlink="http://www.w3.org/1999/xlink" xmlns:svgjs="http://svgjs.dev/svgjs" width="1000" height="1000"><style>
    #light-icon {
      display: inline;
    }
    #dark-icon {
      display: none;
    }

    @media (prefers-color-scheme: dark) {
      #light-icon {
        display: none;
      }
      #dark-icon {
        display: inline;
      }
    }
  </style><style class="darkreader darkreader--sync" media="screen"></style><style class="darkreader darkreader--sync" media="screen"></style><g id="light-icon"><svg xmlns="http://www.w3.org/2000/svg" version="1.1" xmlns:xlink="http://www.w3.org/1999/xlink" xmlns:svgjs="http://svgjs.dev/svgjs" width="1000" height="1000"><g clip-path="url(#SvgjsClipPath1073)"><rect width="1000" height="1000" fill="#"></rect><g transform="matrix(5.0359712230215825,0,0,5.0359712230215825,150,396.76258992805754)"><svg xmlns="http://www.w3.org/2000/svg" version="1.1" xmlns:xlink="http://www.w3.org/1999/xlink" xmlns:svgjs="http://svgjs.dev/svgjs" width="139" height="41"><svg width="139" height="41" viewBox="0 0 139 41" fill="none" xmlns="http://www.w3.org/2000/svg">
<path d="M16.1508 10.7259H10.7658C9.79758 10.7259 8.90079 12.5823 8.0754 16.2951V0.354248H0V40.3371H8.0754V34.7679C8.89793 38.4807 9.79472 40.3371 10.7658 40.3371H16.1508C23.328 40.3371 26.9165 36.927 26.9165 30.1068V20.9562C26.9165 14.136 23.328 10.7259 16.1508 10.7259ZM18.8412 30.1068C18.8412 30.8204 18.5577 31.5047 18.0532 32.0092C17.5486 32.5137 16.8643 32.7972 16.1508 32.7972H10.7658C10.0522 32.7972 9.36792 32.5137 8.86338 32.0092C8.35884 31.5047 8.0754 30.8204 8.0754 30.1068V20.9562C8.0754 20.2422 8.3587 19.5575 8.86312 19.0522C9.36754 18.547 10.0518 18.2626 10.7658 18.2615H16.1508C16.8647 18.2626 17.549 18.547 18.0534 19.0522C18.5578 19.5575 18.8412 20.2422 18.8412 20.9562V30.1068Z" fill="white" data-darkreader-inline-fill="" style="--darkreader-inline-fill: var(--darkreader-background-ffffff, #181a1b);"></path>
<path d="M48.4522 30.1065C48.4522 30.8201 48.1688 31.5044 47.6642 32.0089C47.1597 32.5134 46.4754 32.7969 45.7618 32.7969H40.3768C39.6633 32.7969 38.979 32.5134 38.4744 32.0089C37.9699 31.5044 37.6865 30.8201 37.6865 30.1065V10.7256H29.6111V30.1065C29.6111 36.9267 33.1996 40.3368 40.3768 40.3368H45.7447C46.7129 40.3368 47.6097 38.4804 48.4351 34.7676V40.3368H56.5105V10.7256H48.4522V30.1065Z" fill="white" data-darkreader-inline-fill="" style="--darkreader-inline-fill: var(--darkreader-background-ffffff, #181a1b);"></path>
<path d="M67.2935 10.7256H59.2181V40.3368H67.2935V10.7256Z" fill="white" data-darkreader-inline-fill="" style="--darkreader-inline-fill: var(--darkreader-background-ffffff, #181a1b);"></path>
<path d="M67.2935 0.495361H59.2181V8.03095H67.2935V0.495361Z" fill="white" data-darkreader-inline-fill="" style="--darkreader-inline-fill: var(--darkreader-background-ffffff, #181a1b);"></path>
<path d="M69.988 0.354248H78.0634V12.0796C78.0634 17.4315 80.1891 22.5643 83.9731 26.349C87.757 30.1337 92.8893 32.2606 98.2412 32.2617V40.3371C90.746 40.3314 83.5597 37.35 78.2619 32.0481C72.964 26.7462 69.988 19.5577 69.988 12.0625V0.354248Z" fill="#B1F90F" data-darkreader-inline-fill="" style="--darkreader-inline-fill: var(--darkreader-background-b1f90f, #719104);"></path>
<path d="M98.2411 29.8498V21.7744H88.6321V0.354248H80.5567V12.161C80.5567 16.8516 82.4197 21.3502 85.7361 24.6674C89.0524 27.9845 93.5505 29.8487 98.2411 29.8498Z" fill="#B1F90F" data-darkreader-inline-fill="" style="--darkreader-inline-fill: var(--darkreader-background-b1f90f, #719104);"></path>
<path d="M119.546 16.1407C118.72 12.4279 117.822 10.5715 116.851 10.5715H111.47C104.29 10.5715 100.7 13.9801 100.7 20.7974V29.9524C100.7 36.7726 104.29 40.1812 111.47 40.1784H116.86C117.828 40.1784 118.726 38.322 119.554 34.6091V40.1784H127.63V0.336914H119.546V16.1407ZM119.546 29.9524C119.545 30.6663 119.26 31.3506 118.755 31.855C118.25 32.3595 117.565 32.6428 116.851 32.6428H111.47C110.757 32.6428 110.072 32.3595 109.567 31.855C109.061 31.3506 108.777 30.6663 108.776 29.9524V20.7974C108.777 20.0835 109.061 19.3992 109.567 18.8948C110.072 18.3904 110.757 18.1071 111.47 18.1071H116.86C117.574 18.1071 118.258 18.3904 118.764 18.8948C119.269 19.3992 119.553 20.0835 119.554 20.7974L119.546 29.9524Z" fill="white" data-darkreader-inline-fill="" style="--darkreader-inline-fill: var(--darkreader-background-ffffff, #181a1b);"></path>
<path d="M138.387 32.6426H130.311V40.1782H138.387V32.6426Z" fill="white" data-darkreader-inline-fill="" style="--darkreader-inline-fill: var(--darkreader-background-ffffff, #181a1b);"></path>
</svg></svg></g></g><defs><clipPath id="SvgjsClipPath1073"><rect width="1000" height="1000" x="0" y="0" rx="300" ry="300"></rect></clipPath></defs></svg></g><g id="dark-icon"><svg xmlns="http://www.w3.org/2000/svg" version="1.1" xmlns:xlink="http://www.w3.org/1999/xlink" xmlns:svgjs="http://svgjs.dev/svgjs" width="1000" height="1000"><g><g transform="matrix(7.194244604316546,0,0,7.194244604316546,0,352.51798561151077)"><svg xmlns="http://www.w3.org/2000/svg" version="1.1" xmlns:xlink="http://www.w3.org/1999/xlink" xmlns:svgjs="http://svgjs.dev/svgjs" width="139" height="41"><svg width="139" height="41" viewBox="0 0 139 41" fill="none" xmlns="http://www.w3.org/2000/svg">
<path d="M16.1508 10.7259H10.7658C9.79758 10.7259 8.90079 12.5823 8.0754 16.2951V0.354248H0V40.3371H8.0754V34.7679C8.89793 38.4807 9.79472 40.3371 10.7658 40.3371H16.1508C23.328 40.3371 26.9165 36.927 26.9165 30.1068V20.9562C26.9165 14.136 23.328 10.7259 16.1508 10.7259ZM18.8412 30.1068C18.8412 30.8204 18.5577 31.5047 18.0532 32.0092C17.5486 32.5137 16.8643 32.7972 16.1508 32.7972H10.7658C10.0522 32.7972 9.36792 32.5137 8.86338 32.0092C8.35884 31.5047 8.0754 30.8204 8.0754 30.1068V20.9562C8.0754 20.2422 8.3587 19.5575 8.86312 19.0522C9.36754 18.547 10.0518 18.2626 10.7658 18.2615H16.1508C16.8647 18.2626 17.549 18.547 18.0534 19.0522C18.5578 19.5575 18.8412 20.2422 18.8412 20.9562V30.1068Z" fill="white" data-darkreader-inline-fill="" style="--darkreader-inline-fill: var(--darkreader-background-ffffff, #181a1b);"></path>
<path d="M48.4522 30.1065C48.4522 30.8201 48.1688 31.5044 47.6642 32.0089C47.1597 32.5134 46.4754 32.7969 45.7618 32.7969H40.3768C39.6633 32.7969 38.979 32.5134 38.4744 32.0089C37.9699 31.5044 37.6865 30.8201 37.6865 30.1065V10.7256H29.6111V30.1065C29.6111 36.9267 33.1996 40.3368 40.3768 40.3368H45.7447C46.7129 40.3368 47.6097 38.4804 48.4351 34.7676V40.3368H56.5105V10.7256H48.4522V30.1065Z" fill="white" data-darkreader-inline-fill="" style="--darkreader-inline-fill: var(--darkreader-background-ffffff, #181a1b);"></path>
<path d="M67.2935 10.7256H59.2181V40.3368H67.2935V10.7256Z" fill="white" data-darkreader-inline-fill="" style="--darkreader-inline-fill: var(--darkreader-background-ffffff, #181a1b);"></path>
<path d="M67.2935 0.495361H59.2181V8.03095H67.2935V0.495361Z" fill="white" data-darkreader-inline-fill="" style="--darkreader-inline-fill: var(--darkreader-background-ffffff, #181a1b);"></path>
<path d="M69.988 0.354248H78.0634V12.0796C78.0634 17.4315 80.1891 22.5643 83.9731 26.349C87.757 30.1337 92.8893 32.2606 98.2412 32.2617V40.3371C90.746 40.3314 83.5597 37.35 78.2619 32.0481C72.964 26.7462 69.988 19.5577 69.988 12.0625V0.354248Z" fill="#B1F90F" data-darkreader-inline-fill="" style="--darkreader-inline-fill: var(--darkreader-background-b1f90f, #719104);"></path>
<path d="M98.2411 29.8498V21.7744H88.6321V0.354248H80.5567V12.161C80.5567 16.8516 82.4197 21.3502 85.7361 24.6674C89.0524 27.9845 93.5505 29.8487 98.2411 29.8498Z" fill="#B1F90F" data-darkreader-inline-fill="" style="--darkreader-inline-fill: var(--darkreader-background-b1f90f, #719104);"></path>
<path d="M119.546 16.1407C118.72 12.4279 117.822 10.5715 116.851 10.5715H111.47C104.29 10.5715 100.7 13.9801 100.7 20.7974V29.9524C100.7 36.7726 104.29 40.1812 111.47 40.1784H116.86C117.828 40.1784 118.726 38.322 119.554 34.6091V40.1784H127.63V0.336914H119.546V16.1407ZM119.546 29.9524C119.545 30.6663 119.26 31.3506 118.755 31.855C118.25 32.3595 117.565 32.6428 116.851 32.6428H111.47C110.757 32.6428 110.072 32.3595 109.567 31.855C109.061 31.3506 108.777 30.6663 108.776 29.9524V20.7974C108.777 20.0835 109.061 19.3992 109.567 18.8948C110.072 18.3904 110.757 18.1071 111.47 18.1071H116.86C117.574 18.1071 118.258 18.3904 118.764 18.8948C119.269 19.3992 119.553 20.0835 119.554 20.7974L119.546 29.9524Z" fill="white" data-darkreader-inline-fill="" style="--darkreader-inline-fill: var(--darkreader-background-ffffff, #181a1b);"></path>
<path d="M138.387 32.6426H130.311V40.1782H138.387V32.6426Z" fill="white" data-darkreader-inline-fill="" style="--darkreader-inline-fill: var(--darkreader-background-ffffff, #181a1b);"></path>
</svg></svg></g></g></svg></g></svg>